<svg xmlns="http://www.w3.org/2000/svg" width="820" height="220" viewBox="0 0 820 220" role="img" aria-labelledby="title desc">
  <title id="title">HandyHub ZM wordmark</title>
  <desc id="desc">Transparent vector logo with icon and wordmark for HandyHub ZM.</desc>
  <defs>
    <linearGradient id="bg" x1="0" y1="0" x2="1" y2="1">
      <stop offset="0%" stop-color="#d08b47"/>
      <stop offset="100%" stop-color="#9b5f2b"/>
    </linearGradient>
    <linearGradient id="zmBadge" x1="0" y1="0" x2="1" y2="1">
      <stop offset="0%" stop-color="#18422a"/>
      <stop offset="100%" stop-color="#0f2d1c"/>
    </linearGradient>
  </defs>
  <rect x="16" y="16" width="188" height="188" rx="44" fill="url(#bg)"/>
  <rect x="58" y="54" width="20" height="100" rx="10" fill="#f7f4ef"/>
  <rect x="102" y="54" width="20" height="100" rx="10" fill="#f7f4ef"/>
  <rect x="58" y="94" width="64" height="20" rx="10" fill="#f7f4ef"/>
  <rect x="150" y="54" width="20" height="100" rx="10" fill="#f7f4ef"/>
  <rect x="123" y="134" width="66" height="20" rx="10" transform="rotate(-35 156 144)" fill="#f7f4ef"/>
  <text x="238" y="118" font-family="Segoe UI, Arial, sans-serif" font-size="70" font-weight="800" fill="#18422a">Handy</text>
  <text x="452" y="118" font-family="Segoe UI, Arial, sans-serif" font-size="70" font-weight="800" fill="#b76522">Hub</text>
  <g transform="translate(588 68)">
    <rect x="0" y="0" width="102" height="54" rx="27" fill="url(#zmBadge)"/>
    <rect x="2" y="2" width="98" height="50" rx="25" fill="none" stroke="#d08b47" stroke-width="2"/>
    <text x="51" y="38" text-anchor="middle" font-family="Segoe UI, Arial, sans-serif" font-size="30" font-style="italic" font-weight="800" fill="#f7f4ef" letter-spacing="1.2">ZM</text>
  </g>
  <rect x="238" y="132" width="452" height="8" rx="4" fill="#d08b47"/>
  <text x="238" y="180" font-family="Segoe UI, Arial, sans-serif" font-size="42" font-weight="700" fill="#18422a">Skilled Hands. Trusted Work.</text>
</svg>
